<?xml version="1.0" encoding="UTF-8"?>
<svg width="82px" height="100px" viewBox="0 0 82 100" version="1.1" xmlns="http://www.w3.org/2000/svg" xmlns:xlink="http://www.w3.org/1999/xlink">
    <!-- Generator: Sketch 57.1 (83088) - https://sketch.com -->
    <title>clipboard</title>
    <desc>Created with Sketch.</desc>
    <g id="White-Icons" stroke="none" stroke-width="1" fill="none" fill-rule="evenodd">
        <g id="Desktop-Max-Size" transform="translate(-1209.000000, -98.000000)" fill="#FFFFFF">
            <path d="M1281.72727,188.909091 L1218.09091,188.909091 L1218.09091,116.181818 L1227.18182,116.181818 L1227.18182,129.818182 L1272.63636,129.818182 L1272.63636,116.181818 L1281.72727,116.181818 L1281.72727,188.909091 Z M1249.90909,107.090909 C1252.41818,107.090909 1254.45455,109.122727 1254.45455,111.636364 C1254.45455,114.15 1252.41818,116.181818 1249.90909,116.181818 C1247.4,116.181818 1245.36364,114.15 1245.36364,111.636364 C1245.36364,109.122727 1247.4,107.090909 1249.90909,107.090909 L1249.90909,107.090909 Z M1281.72727,107.090909 L1262.70909,107.090909 C1260.83182,101.809091 1255.84091,98 1249.90909,98 C1243.98182,98 1238.98636,101.809091 1237.10909,107.090909 L1218.09091,107.090909 C1213.07273,107.090909 1209,111.163636 1209,116.181818 L1209,188.909091 C1209,193.931818 1213.07273,198 1218.09091,198 L1281.72727,198 C1286.75,198 1290.81818,193.931818 1290.81818,188.909091 L1290.81818,116.181818 C1290.81818,111.163636 1286.75,107.090909 1281.72727,107.090909 L1281.72727,107.090909 Z" id="clipboard"></path>
        </g>
    </g>
</svg>